<?xml version="1.0" encoding="UTF-8"?>
<svg id="Layer_1" data-name="Layer 1" xmlns="http://www.w3.org/2000/svg" viewBox="0 0 285.05 277.39">
  <defs>
    <style>
      .cls-1 {
        fill: #fff;
      }
    </style>
  </defs>
  <path class="cls-1" d="M108.29,271.2c-.97-.74-1.21-1.19-2.28-1.49-4.48-1.25-1.81.94-7.22.2l-2.04-.28c-.83-1.38-2.06-2.37-3.82-2.66l-.96,2.09c-1.47-.35-3.2-1.67-4.25-2.06-1.72-.63-3.41-1.06-5.06-1.83-.83-.39-1.7-1.35-2.43-1.63l-1.53-.58c-1.02-.39-1.93-.83-2.25-1.86l-.62.29c-.15.07-.46-.31-.64-.42-2.05-1.25-3.44-.67-4.15-1.64l-.51-.7c-.24-.33-.91.85-3.68-1.05l-2.02-1.38c-4.61-3.17-.8-.91-3.82-3.43-.17-.14-.94.33-.97.11l-.18-1.14c-.32.13-.68.35-.87.2-1.11-.86-.37-1.6-1.13-2.33l-.65.51c-.11.09-.37-.35-.55-.43-2.11-.89-3.98-2.81-5.63-4.4-.3-.29-1.13-.72-1.49-.95l-1.48-.97c-5.82-3.81-5.55-4.3-9.93-8.85l-1.43-1.49c-1.06-1.1-2.07-2.12-3.17-3.17-1.33-1.27-1.76-3.23-2.82-4.71l-4.27-5.95c-3.26-4.55-3.3-3.17-6.69-8.42-2.37-3.67-2.31-2.59-4.35-6.95-.62-1.33-1.31-2.62-1.7-4.04-.85-3.08-2.19-5.68-3.8-8.41-.82-1.39-1.31-3.06-1.88-4.6-.64-1.71-.78-3.59-1.35-5.36-1.07-3.38-1.84-6.65-2.54-10.11-.41-2.03-.53-4.15-1.16-6.15-2.13-6.78-3.39-7.81-2.83-15.22.13-1.73.26-3.29.64-5.03.28-1.27.29-2.81.24-4.1l-.1-2.28-.23-7.29c-.13-4.12,1.12-5.46,2.01-9.85,1.02-5,.86-3.27,2.54-7.53,1.77-4.51,1.58-6.51,2.53-9.88l.94-3.36c.48-1.71.74-3.29,1.91-4.78.67-.85.99-1.94,1.47-2.91,1.68-3.41,3.13-6.76,4.66-10.22l2.55-5.77,4.89-10.6c.75-1.63,1.7-3.08,2.89-4.42l6.39-7.26,2.86-3.28,3.86-4.88c1.37-1.73,3.11-3.2,4.75-4.67.81-.73,1.96-1.2,2.69-1.98,1.34-1.44,2.68-2.61,4.19-3.88,2.57-2.18,2.28-3.57,6.23-5.06,1.73-.65,3.05-2.09,4.58-3.11,2.79-1.86,5.49-3.6,8.44-5.2l8.69-4.74c1.64-.89,3.15-1.65,5.03-2.02,1-.2,1.95-1.32,2.83-1.63,2.91-1.03,3.69-1.57,6.28-2.36l4.3-1.3,5.77-1.57c3.97-1.08,7.77-2.28,11.74-3.37l7.03-1.93c2.03-.56,3.92-1.38,5.92-2.07,1.02-.35,2.11-.55,3.23-.8,1.45-.33,3.12-.98,4.61-.73l4.9.83c.98.17,1.96.36,2.97.36h6.14c2.27-.01,4.41.17,6.69.51,1.55.24,4.21-.17,7.34.28l5.51.79,4.75.58,2.78.18c8.91.59,7.02,3.2,10.95,4.2,1.31.33,2.68.71,3.97,1.14l4.48,1.51c2.3.77,4.44,1.66,6.68,2.58l3.84,1.57c.62.25,1.62.33,2.2.66,3.42,1.98,13.17,5.91,14.81,7.66l3.02,3.21c1.17,1.24,2.6,1.87,3.74,3.13,2.89,3.23,6.4,5.7,9.71,8.46,1.56,1.3,2.87,2.72,4.19,4.2l4.15,4.63c1.04,1.16,9.66,6.74,10.24,10.45l.73,4.67c.26,1.67,6.1,8.5,7.32,11.18,1.18,2.58,3.14,4.77,4.14,7.43.97,2.59,1.93,4.84,3.28,7.26,2.12,3.8,3.06,8.05,4.04,12.24.88,3.75,2.44,5.43,2.1,8.76-.36,3.51.24,5.15.54,9.08.04.55.63,1.34.74,1.84.82,3.74,1.14,7.41,1.57,11.21.31,2.72.73,5.32.86,8.07.21,4.23.37,8.42.03,12.7l-.31,3.85c-.23,2.87-.24,5.65-.67,8.56-1.57,10.67-1.07,10.31-5.2,20.14l-2.16,5.15c-1.13,2.71-5.33,9.83-7.16,12.56-.15.16-.31.37-.47.61-.12.19-.22.38-.3.54l-3.32,5.66c-1.37,2.34-2.74,4.63-3.76,7.14-.93,2.27-1.52,4.69-3.47,6.4l-3.31,2.92c-1.83,1.62-3.37,3.32-4.7,5.39-1.16,1.81-2.94,3.35-3.9,5.26-1.45,2.88-2.97,5.22-5.28,7.44-5.49,5.26-6.26,5-12.52,8.9l-2.56,1.6-2.92,1.68c-2.09,1.2-4.09,2.38-6.18,3.62-2.65,1.58-5.03,3.53-8.13,4.18-1.6.34-3.1.95-4.37,1.96l-1.96,1.55c.2-.15-1.88,1.02-1.65,1.15-.08-.04-.35-.19-.46-.26-3.47,1.5-7.36,3.08-11.21,3.83l-6.67,1.29c-6.92,1.34-12.54,1.56-19.32,2.83-1.17.22-2.46.38-3.67.46l-7.81.52-6.84.52c-5.57.42-11.47.82-17.04.19l-8.27-.93c-1.51-.17-3.13-.1-4.51-.68-.59-.25-1.24-1.4-1.82-1.41h-1.5c-.15-.17-.3-.32-.45-.47-.9-.88-1.81-1.68-2.71-2.39ZM77.76,255.14c3.42,1.81,6.65,3.02,10.11,4.38,4.04,1.59,7.77,3.63,11.94,4.88,5.81,1.75,10.24,2.19,16.15,3.57,2.91.68,5.67,1.1,8.66,1.36,3.03.26,5.99,1.14,9.03,1.09l5.11-.08,3.93.31c5.44.43,10.83.2,16.26-.46l6.51-.79c1.59-.19,3.1-.36,4.7-.64l7.96-1.39c4.99-.87,9.53-2.8,14.22-4.64l9.15-3.6,2.59-1.12c1.97-.86,3.73-1.94,5.73-2.77,4.53-1.87,8.71-4.09,12.81-6.79,2.87-1.9,5.81-3.57,8.28-5.9l6.27-5.9c1.63-1.53,3.28-3.04,4.66-4.84l6.44-8.37c3.82-4.97,6.07-8.92,10.14-13.99,2.15-2.68,3.8-5.55,5.11-8.75.1-.26.35-.79.58-.79.02-.16.04-.32.06-.49l2.25-4.14c1.95-3.59,3.44-7.26,4.97-11.09l4.3-10.77c1.04-2.6,1.68-5.03,2.01-7.85.44-3.7,1.25-7.31,1.13-11.05l-.16-4.87c-.03-.92-.43-2.1-.57-3.03,1.38-3.71,1.59-7.48,1.12-11.37-.31-2.55-.45-5-1.01-7.53-.63-2.82-1.24-5.48-2.02-8.26-.21-.75-.33-1.8-.62-2.36-.29-.57-.49-.94-.57-1.51-.27-1.95-.63-3.71-1.07-5.61l-2.74-11.9c-1.07-4.65-2.24-9.3-4.62-13.36l-2.44-4.14c-.62-1.06-.75-2.37-1.41-3.47l-3.02-5.01c-1.37-2.28-2.84-4.29-4.01-6.71-.58-1.18-1.41-2.35-2.23-3.38-3.1-3.9-4.49-6.42-7.45-10.33-1.21-1.6-2.56-2.88-3.99-4.25l-7.22-6.94-5.4-4.77c-1.58-1.39-3.03-2.8-4.72-4.1-2.89-2.2-7.45-4.85-10.75-6.56-1.57-.81-2.98-1.9-4.68-2.39-5.13-1.48-6.75-3.4-13.04-5.02-1.71-.44-3.39-1.21-5.1-1.52-4.4-.78-1.32-1.68-9.36-3.17l-6.32-1.17c-5.93-1.1-4.27.81-10.78-1.67-2.75-1.05-5.72-.9-8.59-.94l-2.33-.04.64.79c-2.18,0-4.22.15-6.25-.16-2.04-.32-3.89-.5-5.95-.42-3.8.15-7.17-1.53-12.09-.28-2.78.71-5.35.8-8.12,1.39l-5.14,1.09c-2.37.5-1.85.54-4.95.87-.38-.11-.38-.06.1.36-3.98.98-2.03-.88-6.24,1.88-.57.09-1.59-.13-2.29.25l-2.99,1.64c-.23.12-.32.98-.56.94l-.97-.19c-1.09-.21-2.1.83-2.98,1.13l-2.93,1.03.43.51-2.53.54-3.05.82c-.53.14-1.13.54-1.65.8-.92.45-2.43.55-3.18,1.4-.5.56-.79.94-1.45.88.62-.38.29-.32-.2-.32l-4.91,2.24c.64.31.8.39.4.24l-.69.6c-.07.06-.13-.28-.18-.42-4.92,2.15-7.85,5.01-12.26,7.76-2.28,1.42-4.52,2.87-6.62,4.55-1.8,1.44-3.58,2.52-5.55,3.74-1.13.69-2.15,1.92-3.22,2.78-1.33,1.07-2.3,2.4-3.39,3.69-1.61,1.9-2.98,3.79-4.38,5.85-1.54,2.27-3.48,4.22-4.79,6.66-2.69,5.03-3.64,4.79-6.36,8.48-1.78,2.43-4.85,6.9-5.96,9.52l-2.69,6.35c-.76,1.79-1.37,3.57-2.35,5.3-1.03,1.81-2.12,3.52-2.75,5.5-.39,1.22-.99,2.25-1.49,3.42-.92,2.15-1.58,4.44-2.16,6.68l-1.38,5.28c-.42,1.62-.43,3.38-.95,5-.72,2.28-1.79,4.43-2.15,6.8-.32,2.14-.68,4.07-1.43,6.12-.24.66-.09,1.52-.17,2.18-.36,2.99-.53,5.9.28,8.9,1.56,5.75-.73,5.34.34,12.67l.58,3.95c.45,3.03.93,5.94,1.66,8.88.51,2.04.82,4.06,1.22,6.15.71,3.66,1.82,7.04,2.97,10.58.93,2.86,1.4,5.78,3.75,8.52,1.57,1.83,3.23,3.59,4.46,5.66l2.2,3.69c1.2,2.01,1.91,6.76,4.78,9.82.78.83,1.55,1.58,2.26,2.44l3.39,4.1c1.61,1.95,3.21,3.67,4.98,5.5l4.06,4.22c.82.85,1.31,1.99,2.03,2.89l3.32,4.16c1.4,1.75,2.98,3.15,4.66,4.6l4.18,3.62c.8.69,1.68,1.21,2.57,1.82l3.6,2.47,9.77,5.55,4.7,2.49Z"/>
  <path class="cls-1" d="M172.23,27.72c-.17-.51-.28-1.05-.33-1.71.31.44.43.88.33,1.71Z"/>
  <path class="cls-1" d="M200.63,205.39l-2.16,1.52c-2.08,1.46-3.66,3.02-5.95,4.09-4.65,2.18-8.55,4.83-13.48,6.95l-6.48,2.79-3.56,1.16c-3.47,1.13-6.49,2.82-10.2,3.2-2.78.29-5.53.62-8.37.68-3.8.07-7.47-.09-11.23.32-5.32.58-11.64-1.44-16.73-3.1-2.23-.73-4.01.24-8.59-1.69-2.7-1.13-5.67-1.66-8.15-3.29l-8.47-5.61c-1.13-.75-2.23-1.26-3.26-2.16-.82-.73-2.22-.9-3.05-1.59l-4.79-3.93c-1.55-1.27-2.93-2.53-4.25-4.04-2.99-3.42-4.15-3.6-6.64-8.21-1.4-2.59-3.12-4.67-4.86-7.04-1.84-2.48-3.12-5.29-4.76-7.92-1.17-1.88-2-3.83-2.92-5.87-.56-1.24-.63-2.77-1.09-4.07-1.03-2.96-1.8-5.81-2.24-8.94-.28-1.99-.67-3.93-.79-5.95-.11-1.73-.15-3.35-.56-5.06-.38-1.56-.4-3.13-.43-4.76l-.1-5.09c-.03-1.75-.17-3.37-.12-5.13.08-2.78.35-5.29.65-8.08.25-2.38-1.92-7.72,2.54-12.68,2.7-2.99,6.11-11.13,9.32-15.51l4.81-6.58c.9-1.23,1.89-2.55,3.04-3.55,3.31-2.86,6.5-5.59,9.57-8.69,6.76-6.83,13.86-10.22,22.18-13.86l4.74-2.07,6.63-2.92c.95-.42,2.17-.56,3.17-.9,3.53-1.2,6.99-2.2,10.67-3.01.75-.17,1.76-.08,2.61-.1,2.42-.07,5.09-.89,7.46-.33,6.8,1.61,7.66-.06,12.82,1.07,2.53.56,4.64.91,7.25.6,1.94-.23,4.15.86,5.66,1.96.65.47,1.17,1.11,1.99,1.22,2.53.32,4.94.86,7.23,1.99l2.48,1.22c.48.24,1.26.52,1.67.78l1.94,1.23c.57.36.62,1.36,1.66,1.34.58-.01,1.1.9,1.53,1.51l.45-.48,1.62,1.85c.8.92,3.12,1.25,2.8,2.05.2-.49,2.01.86,2.39,1.19,1.32,1.16,2.62,1.18,3.95,2.41.59.55.99.64,1.64,1.12l2.99,2.19c1.25.91,2.3,1.77,3.28,2.97,1.22,1.49,2.88,2.81,3.51,4.7.41,1.23.75,2.32,1.65,3.25,1.71,1.76,2.8,2.78,4.12,4.69.01.1.07.53.06.46s.35-.46.41-.42c.6.32,1.37,1.28,1.86,2.02,3.96,5.96,2.75,7.59,5.14,12.59.76,1.58,1.32,3.2,1.96,4.89s1.77,3.41,1.9,5.25c.28,4.1-1.78,8.79-.37,14.35.54,2.12.56,4.33.09,6.47-.56,2.53-.74,5.02-1.02,7.59l-.57,5.22c-.47,4.33-.8,8.6-1.78,12.83l-1.35,5.82c-.36,1.56-.66,2.87-1.36,4.3l-2.71,5.56c-.64,1.31-1.36,2.48-2.11,3.74-1.4,2.35-2.89,4.27-4.89,6.14-1.69,1.59-2.12,4.38-3.79,5.94l-3.4,3.16-4.85,6.24ZM124.93,216.57l4.31.66c2.38.36,4.65,1.43,7.06,1.53l4.66.19,8.76.18c4.11.08,5.6-.09,9.52-1.25,1.18-.35,2.6-.26,3.84-.54,7.25-1.65,15.63-6.01,22.18-9.6,2.08-1.14,4.15-2.03,5.82-3.77,1.55-1.61,3.29-2.83,5.01-4.28,2.11-1.78,6.79-8.3,9.31-10.57l1.9-.78c3.88-4.18,7.04-9.79,9.18-15.05,1.01-2.47,1.23-5.05,1.96-7.98.36-1.43.68-2.74.9-4.18l1.46-9.47c.53-3.48.68-6.92,1.04-10.45.38-3.78-.52-7.34-.67-11.05l-.27-6.66-.67-4.16-.53-3.39-1.24-7.27c-.3-1.77-1.19-3.34-2.04-4.88l-2.72-4.93-1.2-.69c-.5-.9-.88-2.07-1.58-2.81-2.67-2.83-5.18-5.68-8.21-8.05l-4.84-3.78-13.47-10.01-6.68-4.42c-.63-.42-1.16-.78-1.88-1.05-4.49-1.69-3.73-4.28-13.71-4.59l-8.72-.28c-4.68-.15-3.07-1-7.82-.6-2.4.2-4.68.12-7.07.02-3.01-.12-5.83.82-8.73,1.35-2.03.38-4.09.63-5.99,1.24l-6.13,1.95c-1.56.49-3.05,1.41-4.51,2.12l-4.27,2.08c-2.22,1.08-4.81,1.91-6.55,3.69-.81.83-1.38,1.83-2.35,2.52-1.77,1.26-3.44,2.4-5.33,3.46l-.2.49c-.05.11-.67-.16-.78-.09l-2.2,1.56-3.05,1.33-4.15,2.86c-1.99,1.37-3.19,3.09-4.01,5.31-3.92,3.41-2.58,1.79-4.12,5.35-.66,1.54-1.14,2.96-1.64,4.57-.37,1.19-3.32,5.56-4.22,6.85-2.53,3.63-1.57,5.17-1.64,6.34l-.3,5.4c-.06,1.1-.43,1.93-.93,2.86-.71,1.32-1.25,2.79-2.07,4.03-.89,1.34-1.13,2.67-.91,4.31.51,3.82-2.64,4.62-.15,15.25l1.21,5.14,2.68,10.86,1.4,5.45c.43,1.65,1.47,2.94,2.09,4.51,1.94,4.89,4.16,9.72,7.98,13.48,1.24,1.22,2.33,2.31,3.43,3.68,2.89,3.63,6.4,6.57,10.26,9.15,1.79,1.2,3.19,2.36,4.6,3.96,3.38,3.85,11.37,9.02,16.26,10.48l5.31,1.59c1.7.51,3.52.53,5.41.82Z"/>
  <path class="cls-1" d="M140.29,43.98l-3.39.14c-.74.03-2.04.2-2.24-.86,1.42-2.4,2.02-1.05,2.8-3.97.42-1.59.27-2.91.08-4.54l-.94-7.81c-.21-1.74-.72-3.31-1.19-5.18l-2.55,4.96c-4.85,9.46-2.04,7.27-4.07,12.45-.69,1.76-1.32,3.6-2.3,5.26-1.14.45-2.62-.48-3-1.6-.34-1-1.59-1.36-2.07-2.07-.76-1.13-1.35-2.17-2.37-3.08-1.54-1.37-2.86-2.98-4.51-4.2l-3.92-2.89c-.09-.07-.39-.21-.48-.25-.13-.05-.34.47-.3.45.18-.05.64-.08.73.15l3.11,8.44.99,3.03c.2.6.21,1.34.12,2.02l2.14,1.43c1.08.72,2.75.03,3.71.98.41.41-.41,1.17-.93,1.21-2.45.15-4.82,1-7.04,1.99-1.07.48-1.91.6-3.07.75l-1.88.23c-.46,1.14-1.35,1.31-2.29,1.6-1.66.51-3.03.91-4.8.89l-1.74-.03c-.43,0-.65-1.12-1-1.43-4.18-3.62-5.24-3.49-8.62-6.05-1.8-1.37-5.72,1.9-4.88,2.98l.56.72c.06.68.48,1.27.94,1.88,1.55,2.09,1.44,2.37,3.09,4.24,1.82,2.05,3.72-.34,5.87,1.58l-1.6,1.24c-2.81,2.18-3.17,1.81-6.7,3.26-2.56,1.05-1.59,3.16-3.71,2.96.33-1.36,1.01-2.7.83-4.02s-1.49-2.13-2.15-3.07c-.88-1.26-1.68-2.45-2.43-3.76l-1.87-3.24c-.98-1.7-2.48-3.19-3.17-5.05-.61-1.67-1.4-3.21-2.88-4.22-.3-.21-.93-.88-1.37-.83-3.8.44-5.56,2.49-6.34,1.11-.18-.32.16-.95.54-1.18l2.41-1.46c4.55-2.74,3.47-3.28,8.65-5.28,3.2-1.24,5.22-3.57,10.86-5.41.87-.28,2.7-.24,3.47.13,1.33.63,5.1,2.91,5.75,3.81,1.07,1.47,1.18,3.49,1.06,5.24l-1.24,1.11-1,3.75c-.05.2-.47.58-.49.77-.12,1.02,2.97-.94,4.9.34.39.25,1.01,1.02,1.47,1.12,1.61.33,2.11,1.64,3.04,2.61,1.07,1.12,3.32,2.08,4.82,2.02,1.65-.07,3.35-1.71,3.69-3.13.16-.68.27-1.82.16-2.36-.41-2.15-3.8-10.21-4.12-11.36l-1.37-4.96c-.33-1.21-.95-2.18-1.56-3.29-1.44-2.63-.61-.78-4.92-1.41.5-1.71,2.03-1.73,3.34-2.1,2.97-.84,5.34-1.83,7.59-.35,3.2,2.11.33,2.8,4.69,4.54.96.38,1.27,1.01,1.69,1.86l1.22,1.14c.97.9,2.53,1.67,3.31,2.69.72.95,1.06,1.69,2.25,2.22l.88.4c.24.11.78-.35.9-.58l4.31-8.34c1.44-2.8,2.75-5.55,3.85-8.53.1-.28.07-1.11.3-1.3.42-.34,1.48-.32,3.52-1.02.82-.28,2.07.13,3,.06,1.4-.11,4.3-1.43,5.33.23.12.19-.13.79-.32.94l-2.46,1.88c-.04,1.73-.02,3.27.06,4.93.18,3.55,0,2.99.89,6.69.2.83.96,1.92.77,2.8-.78,3.65.67,2.91,1.16,6.65l.53,4.05c1.08.56,2.46-.19,3.38-.76,2.56-1.58,4.04-5.54,6.22-7.62s4.33-4.14,5.24-7.26c.43-1.48,1.3-2.79,2.11-4.14.64-1.07,1.14-2.31,1.71-3.43l1.71-3.32c.14-.27.57-.68.85-.69.96-.04,1.95,2.84,2.15,3.88.57,2.94,1.52,5.55,2.7,8.27.53,1.22.4,2.73.71,3.99.55,2.25,1.16,4.45,1.91,6.57.49,1.39,1.2,2.54,1.31,4.06.13,1.66.17,3.75,1.17,5.13.7.96,2.36-.15,2.78-.94l3.31-6.22,1.85-3.77c1.76-3.6,4.22-7.23,4.18-11.83l-2.99-1.8c-.38-.23-1.04-1.06-.8-1.48.33-.57,1.35-.53,1.91-.31,1.43.56,3.06.68,4.4,1.31,1.24.58,2.39,1.56,3.65,2.03s1.32,1.71,1.51,2.89c.96,6.17,1.51,12.2,1.79,18.46.08,1.82.52,3.5.81,5.37l.03-1.51.7,1.99c2.03-2.37,2.93-5.22,4.63-7.8l2.17-3.29,1.65-3.8c.24-.56.48-1.21.69-1.79-1.31-1.65-2.49-3.12-3.62-4.89,1.72-.33,2.32,1.01,3.38,1.63,1.72,1.02,3.29,2.14,4.92,3.31,1,.71,2.47.94,2.62,2.65-1.94.51-1-1.1-4.14.07-1.12.41-1.59.8-2.11,1.91-.44.94-1.19,1.89-1.7,2.82-1.73,3.11-2.75,4.43-4.36,7.37l-1.47,2.68.58.58c.15.15-.13.7-.25.9l-1.61,2.51-1.76,3.41c-.14.27-.62.69-.89.78s-.91-.1-1.2-.25l-2.13-1.06c-1.29-.64-1.78-1.38-1.99-2.81s-.19-2.83.28-4.14c-.74-.95-1.34-2.12-1.42-3.44-.22-3.96-.86-5.17-1.18-8.77l-.58-6.52c-.03-.35-.27-.75-.63-1.12-.64,1.21-4.4,6.39-2.73,6.98-.39,1.01-.88,2.29-1.39,3.31-.61,1.22-.82,2.34-1.17,3.62s-1.29,2.65-1.37,4.19l1.8,1.29c.38.27.4,1.61.05,1.85-4.38-1.33-2.43.2-5.35-1.96-1.34-.99-3.1-1.11-4.62-1.73l-5.23-2.12c-1.13-.46-2.08-.92-3.38-.99-.41-.02-.98-.47-.96-.94,1.08-.74,2.42.31,3.28-.27.24-.16.39-.87.33-1.16-.69-3.87-.52-3.55-2.14-7.13-.81-.06-1.6-.06-2.28-.17l-2.81-.44c-.73-.11-1.78-.51-2.49-.65-3.38,2.32-2.71,2.04-4.99,5.54-.17.26-.32,1.03-.19,1.31.15.32.67.84,1.01.97l1.35.53c.15.06.4.28.49.39.93,1.12-2.25.14-2.79.15-2.56.07-5.06.56-7.53.14-1.22-.21-2.1-.38-3.41-.22-1.17.14-2.52-.1-3.8-.04ZM165.18,26.07c-1.92,2.3-2.65,4.58-3.28,7.26,1.73.51,3.29.77,5.07.9s-1.15-7.39-1.79-8.16ZM88.09,42.77l.98-1.46c2.12-3.15.05-4.2-.28-4.9-.83-1.78-1.94-2.94-3.56-3.87-1.2-.69-1.94-.78-3.23-.22l-2.52,1.1c-.97.42-1.98.88-2.31,1.78-.39,1.03-.21,2.13.38,3.04l4.52,7c.2.32,1.26.15,1.58-.06,2.89-1.88,3.27-.66,4.45-2.41ZM95.73,36.97c.2-.74.2-1.13,0-1.47v1.47Z"/>
  <path class="cls-1" d="M42.88,151.55c1.86-1.77,2.02-6.09,3.23-5.98s.05,1.89.35,3.15c.5,2.06.89,8.03-.19,9.87-1.73-.03-1.54-2.89-3.11-3.57-1.14-.49-2.51-.1-3.72,0l-10.37.76-4.76.37-5.73.31c-1.45.97-.33,4.41-1.66,4.8-.86-3.53-1.41-6.93-1.19-10.5.06-.96.66-2.16.9-3.07,2.27-.99,4.51-1.77,6.57-3l2.77-1.66,3.66-2.28c1.43-.89,2.9-1.34,4.22-2.45-.45-.92-1.07-1.23-1.82-1.71l-4.32-2.75c-.58-.37-1.3-1.01-1.84-1.47l-2.52-2.15c-1.12-.96-2.55-1.66-3.59-2.72s-1.91-1.94-2.84-3.02c-.8-.93-.42-3,.08-4.03.79-1.61,1.28-3.01,1.22-5.02,1.52.98,1.63,2.88,2.26,4.56,5.74,2.14,9.25,1.38,14.74,2.12,4.61.62,5.39,2.6,9.88-.34.64-.42,1.07-1.74.76-2.34-1.56-3.06-.86-3.77-3.02-4.33-1.1-.28-2.11-.77-3.16-1.16l-5.05-1.89c-2.18-.82-3.88-1.48-6.16-1.67-2.14-.18-4.06-.38-6.23-.28-1.07.96-1.61,3.79-2.23,3.04.28-1.65.44-3.11.5-4.85.08-2.18,1.06-.78,1.25-4.9.1-2.14,1.39-1.8,4.08-2.83.69-.26,1.17-.35,1.88-.53l3.39-.86c2.08-.53,4.16-.33,6.25-.68l7.32-1.22c.2-.03.62-.26.73-.42.67-.96-2.84-6.67-3.68-7.89-.4-.58-1.37-1.09-1.7-1.71l-2.11-3.97c-.75-1.42-1.4-2.64-1.97-4.19-.53-1.45-2.47-2.76-1.28-4.76.21-.35,4.93-8.43,4.65-4.98l-.2,2.47,2.86,1.85c1.56,1.01,3.01,1.96,4.63,2.87,1.4.78,2.72,1.86,4.27,2.32,2.09.63,3.41,1.87,5.09,3.2,1.29,1.02,3.13,1.69,4.56,2.55l1.76-.42c.22-.05.77.12.92.26.19.17.12.92-.11,1.11-1.53,1.31-2.92,3.24-3.87,5.12l-1.35,2.64c-.08.16-.51.57-.59.45-.98-1.5.22-.44-1.34-3.17-1.3-2.27-2.91-4.14-5.32-5.25l-5.12-2.37-5.64-2.96c-1.07.12,1.53,3.71,1.71,3.96.85,1.2,1.64,2.46,2.43,3.69l2.01,3.11c.71,1.1,1.16,2.55,2.07,3.48,1.49,1.53,1.96,3.5,3.16,5.2l1.56,2.2c-1.13.43-2.17.87-3.24.93-3.01.17-5.76.59-8.7,1.32-4.25,1.06-3.89.02-10.51,2.31-.85.29-1.77.36-2.7.81,1.98,1.28,3.98,1.38,6.08,1.94,3.32.88,5.39,2.6,10.57,3.5,3.4.59,5.39-1.84,5.95-1.95.09-.02.29.05.27.13-.03.13-.14.47-.21.58l-1.77,2.82c-.62,1-1.26,1.99-.77,3.22.59,1.46.01,2.65-.39,4.03-.77,2.63-.71,5.45-.94,8.18l-.4,4.76-1.97-3.86c-.28-.55-1.2-1.33-1.76-1.59-3.78-1.74-5.88-.11-9.47-1.06-1.75-.46-8.48-1.79-9.56-1.18-.8.45,3.3,3.36,3.67,3.6l2.58,1.68c1.33.87,2.59.61,4.23,1.64l5.04,3.17c1.74,1.09,3.51,1.89,5.05,3.32,1.19,1.11-4.38,3.74-4.83,3.88-2.12.7-3.8,1.54-5.69,2.65l-5.33,3.16c-.74.44-2.75,1.54-2.88,2.33s5.54.76,6.44.69c1.26-.1,2.32-.18,3.54-.21,1.29-.03,2.58-.31,3.91-.46,1.11-.12,2.81.53,3.87-.48Z"/>
  <path class="cls-1" d="M249.78,135.82l3.49-1.43c1.59-.65,1.91-2.87,1.72-4.39-.37-2.9.53-3.71-.16-4.87-.14-.23-.69-.4-.98-.34-3.65.87-4.11.55-7.61,1.39-2.32.56-1.49,2.34-3.04,4-.68-1.15-.59-1.97-.71-3.15-.36-3.36-.91-6.84-1.55-10.08-.06-.33.45-1.06.76-1.06,1.59.02,2.09,2.55,4.77,3.72,1.31.57,2.82.03,4.11-.17l3.58-.57,4.31-.57c3.23-.43,5.29-.08,8.2-1.35,1.76-.76,1.43-1.97,1.51-1.89l-.54-.56.33-2.42c.02-.16.16-.52.22-.65s.43.31.5.44l.21.43c.04.09.51.07.53.17l.97,7.09c.19,1.43-.01,2.54-.04,3.9-.08,4.84,2.21,9.51.2,14.9-.76,2.03-2.2.39-3.74,2.39-.41.53-1.27,1.25-1.95,1.3-3.26.2-5.98-1.25-8.02-3.87l-1.3,1.95c-.95,1.43-2.73,1.73-4.06,2.51s-2.55,1.78-4.03,2.3c-3.18,1.11-1.9,4.46-3.71,4.47l-.1-7c-.04-2.58-.76-5.14,1.55-5.55,1.58-.28,3.14-.44,4.58-1.03ZM261.1,135.34c1.94.18,3.44.2,5.18-.04.75-.72,1.99-1.23,2.41-2.17.45-1,.72-2.77.53-3.84l-.73-4.16c-.19-1.09-1.52-1.32-2.44-1.02-1.43.46-2.81.53-4.25.44-.9.42-3.67.31-3.74,1.06-.08.89-.08,2.06-.06,2.92.08,3.6-.29,4.47,3.1,6.82Z"/>
  <path class="cls-1" d="M176.25,260.68c-6.12,1.08-8.44,6.33-16.24,1.71-1.88-.7-3.3-1.87-4.01-3.84-1.69-4.69-2.53-9.73-2.34-14.81.03-.69.56-1.79.68-2.45.27-1.43,1.07-2.21,2.15-2.99,2.18-1.58,3.99-2.74,6.56-3.52,2.82-.86,5.58-1.56,8.6-1.6,1.07-.02,1.96-.52,2.98-.85.77-.25,3.69-.65,4.37-.24.25.16.26,1.03.06,1.27l-1.6,2.01c-.82,1.03-.23,2.15.03,3.2.6,2.44,1.16,4.83,1.61,7.32.34,1.87.58,3.64,1.33,5.4.01,2.08.85,3.85,2.29,5.42.38.41.35,1.42-.18,1.66l-2.42,1.1c-1.34.61-2.4.93-3.87,1.19ZM173.25,257.83c.09-2.22-.23-7.27-.71-9.15l-1.59-6.23c-.42-1.66-.83-3.34-1.45-4.93-.86-2.24-6.88.95-8.03,3.84-.57,1.43-1.69,3.35-1.55,4.95.25,2.78.79,5.59,1.67,8.28.34,1.04,1.1,2.01,1.38,3.16.44,1.79,2.38,2.74,4.05,2.91,2.69.27,6.17-1.49,6.22-2.83Z"/>
  <path class="cls-1" d="M219.45,237.86l-3.82-1.28c-2.34-.78-4.16-3-5.77-4.83-2.29-2.61-2.59-4.67-4.14-7.68.02-2.15.09-4.59,1.05-6.6l2.29-4.8c1.93-1.47,3.82-3.17,5.87-4.51,4.47-2.93,9.97.59,13.88,2.84,1.93,1.11,3.62,2.29,4.91,4.17.72,1.04,1.39,2.1,1.8,3.37,1.37,4.21,1.75,7.93-.21,11.91-1.51,3.08-4.41,4.78-7.21,6.44-1.83,1.09-3.4,1.83-5.64,1.47-.9-.14-2.08-.19-3.02-.5ZM228.6,233.24c1.46-.95,2.39-2.36,2.34-4.1-.04-1.37.15-3.01-.31-4.33-1.71-4.97-2.67-5.12-5.76-9.06-.92-1.17-1.83-2.09-3.16-2.69-2.12-.96-4.19-1.42-6.53-1.09-1.28.18-2.22.66-2.74,1.94-.33.81-.97,1.94-.96,2.9.06,3.62,1.61,6.7,3.25,9.85l3.44,2.36c.87.6,1.45,1.32,2.34,1.86,3.69,2.25,3.1,2.36,8.09,2.37Z"/>
  <path class="cls-1" d="M243.43,111.95c-1.79-.96-2.83-1.93-3.53-3.81-.61-.76-1.91-1.85-2.78-2.4-.7-.45-1.13-.66-1.46-1.39-1.04-2.32-1.81-4.72-3.08-6.91-.91-1.56-1.83-2.9-2.11-4.72-.05-.31-.22-.96-.17-1.23.21-1.12,2.79.75,3.8,1.03,2.18.61,3.99-.65,5.79-1.69,1.89-1.09,4.2-1.14,8.55-3.78l3.52-2.13c.9-.54,2.28-.74,3.08-1.58l.53-3.56c.43-2.9,3.14,4.1,3.22,4.32.67,1.85,1.63,3.23,2.38,5.01l1.96,4.63.81,2.14c2.3,6.06-.46,4.82.63,7.87-.03.84-.22,2.12-.68,2.89-.53.88-1.72,1.94-2.6,2.33-4.02,1.79-1.45,1.93-7.37,4.18-.63.24-1.79.34-2.31.13-3.76-1.5-3.63,1.09-8.18-1.34ZM242.17,107.09c3.23.77,2.91.23,6.1-.37,3.57-.67,6.66-2.42,9.7-4.26,6.14-3.7,1.68-12,.84-12.38-1.34-.6-1.5.88-5.1,1.29-1.15.13-2.25.96-3.32,1.42-1.39.59-2.53,1.35-3.84,2.07-2.36,1.31-4.77,2.31-7.24,3.45l-2.03,3.22c-.3.47.41,1.34.69,1.79,1,1.58,2.1,3.27,4.18,3.76Z"/>
  <path class="cls-1" d="M76.6,62.37c2.25,2.73,3.83,2.78,3.45,4.61-.07.33-.65.51-1.02.83-1.4,1.22-2.38,2.8-3.72,4.07l-2.47,2.34-3,3.62c-.52.62-.81,1.42-1.47,1.93-2.23,1.74-2.17,4.17-3.49,3.72-1.68-.58,1.05-3.02-1.13-4.94l-5.14-4.53c-.92-.81-2.1-1.52-2.85-2.45-.6-.75-.99-1.39-1.93-1.77-.73-.3-1.2-.89-1.83-1.31l-4.42-2.93c-2.22-1.47-2.41.02-5.64-.34-.81-1.15.18-2.35,1.04-3.11.43-.37.73-1.31,1.08-1.73l2.68-3.21c.75-.9,1.73-1.54,2.63-2.27.69-.56,1.3-1.45,2.15-1.88,1.4-.72,2.19-1.84,3.26-2.89,2-1.96,3.38-3.05,5.19-5.58,3.06,1.92,3.12,2.51,5.02,5.68-1.28,1.9-2.54.42-4.59.92-4.85,1.18-6.38,2.72-9.88,6.27,1.38,1.41,6.01,5.95,7.62,5.92,2.78-3.11-.31-3.3.8-5.91,1.51.8,7.81,5.76,7.74,6.94-.05.97-2.57.11-3.27-.17-1.08-.44-2.72-.05-2.76,1.19,2.65,2.79,5.5,5.17,8.64,7.41,1.51-1.28,2.66-2.59,3.73-4.16.69-1.01.8-2.19,1.01-3.44.67-4.04-1.1-4.23-.26-5.66.11-.19.74,0,.87.19.55.81,1.29,1.85,1.95,2.65Z"/>
  <path class="cls-1" d="M44.4,210.3c-1.61.98-2.86,1.85-4.38,2.95-1.26.91-2.84-2.59-3.2-3.02-1.37-1.66-2.34-3.34-3.41-5.18-.98-1.69-2.01-3.27-2.9-5.04-.57-1.14-1.43-1.96-2.17-2.94-1.06-1.4-1.22-3.4-2.12-4.96-.29-.5-.43-1.24-.24-1.71.72-1.85,5.51.13,7.41.61,3.01.76,9.69,3.49,10.47,3.39l4.03-.54,7.27,1.4c.21.04.72-.03.88-.08.21-.06.33-.72.26-.93l-1.37-4.35c-.3-.96-1.3-1.79-2.01-2.56-.82-.9-1.73-1.46-2.65-2.23l-4.88-4.11c-.26-.22-1.08-.42-1.07-.73.01-1.59,2.57-1.85,3.86-2.07l2.74-.47c.69-.12.93.31,1.23.92l3.66,7.54c.65,1.35,2.1,2.15,3.01,3.24.79.95,1.25,2.28,1.78,3.4,2.02,4.22,1.51,1.76,3.62,7.13.12.31.1,1.08-.03,1.35-.41.85-2.69.97-3.08.94l-4.83-.43c-1.05-.09-1.85-.64-2.59-1.41l-2.6.07c-.95.03-2.16-.48-3.12-.36-1.26.15-2.1-.06-3.26-.34l-3.44-.84c-1.82-.45-5.13-1.64-7.49-1.69,1.67,3.48,4.18,7.27,6.58,9.96.45.5,1.2.95,1.83.52,1.31-.9,3.2-.93,4.17.44-.28.87-1.14,1.65-1.95,2.15Z"/>
  <path class="cls-1" d="M208.64,247.38c-1.11,1.69-2.25,4.37-3.7,5.49-1.83,1.42-4.08,2.5-6.36,2.78-1.12.14-2.38,0-3.6-.06-.89-.04-1.91-.85-2.75-1.08-1.92-.54-3.29-1.5-4.79-2.77-.97-.81-2.38-1.35-3.03-2.53-2.3-4.18-1.48-2.68-2.09-7.5-.47-3.73,0-7.81,2.4-10.78l2.92-3.62c2.81-2.17,8.4-2.02,11.57-.72.91.1,1.73.36,2.37,1.01s1.54,1,2.2,1.55c1.48,1.24,2.83,2.6,4.19,4.01,1.23,2.12,1.24,3.21,2.21,6.03.4,1.15.26,2.29.14,3.45-.18,1.81-.68,3.24-1.67,4.75ZM199.77,252.65c2.26-.54,4.51-2.14,4.43-4.57l-.09-2.5c-.06-1.57-.74-3.23-1.18-4.8.33-3.5-2.69-7.07-4.79-9.49-1.19-1.37-2.39-2.26-4.28-2.66-1.75-.38-3.39.09-4.21,1.93-.77,1.71-.91,3.72-1.21,5.6-.23,1.4-.62,2.44.6,3.6.97.91,1.49,2.25,2.07,3.47,2.62,5.51-.2,4.71,3.66,7.48.81.58,1.64,1.05,2.59,1.3l2.41.64Z"/>
  <path class="cls-1" d="M92.26,243.25c-1.37.93-2.28,1.68-3.36,2.7-2.21,2.09-5.2,3.2-8.23,2.73-1.38-.21-2.71-1-3.93-1.62l-2.83-1.45c-1.16-.59-1.9-1.02-2.65-2.09-.88-1.25-1.78-2.46-2.2-3.98-.72-2.66-1.23-5.39-.46-8.1.57-1.99,2.01-3.45,3.18-5.06.77-1.05,1.61-1.78,2.65-2.53,2.31-1.66,4.72-2.88,7.64-2.72,1.91.1,3.78.06,5.56.77,1.08-.2,1.99.39,2.91.75,2.19.85,3.4,2.2,4.01,4.47.33,1.23.78,2.49.7,3.87.63,1.51.47,2.91.07,4.48-.56,2.21.45,2.77-1.64,5.51-.44.58-.79,1.83-1.42,2.26ZM76.13,245.32c3.83.97,7.42-.55,9.31-3.82l3.49-6.07c.43-.75.34-2.26.82-2.95,1.07-1.57.9-2.98.47-4.67-.3-1.18-.25-2.37-1.37-2.97-.97-.52-2.19-.89-3.2-.13-.72.53-1.71.48-2.65.75-1.34.38-3.09,1.21-3.9,2.37l-3.22,4.58c-.81,1.15-1.52,1.98-2.06,3.41l-.86,2.3c-.97,2.61,1.25,5.28,3.17,7.22Z"/>
  <path class="cls-1" d="M236.31,190.55c-1.78-.25-2.79.09-4,1.13-.75.65-1.57,1.26-2.24,2.12-1.07,1.37-1.52,3.48-.71,5.09l2.13,1.99c1.2,1.12,3.1,1.85,4.84.88.67-.37,1.87-.71,2.41-.17,1.73,1.71-2.68,2.98-4.01,4.83-1.05,1.46-1.68,3.13-3.22,4.27-2.57-3.91-1.65-2.26-3.47-3.74-1.55-1.26-3.29-2.37-5.25-3.34.17-1.33.92-2.36,1.73-3.46.71-.95.78-2.33,1.12-3.49.61-2.1,1.54-4.01,2.55-5.92.55-1.03,1.51-1.47,2.49-1.99,1.95-1.04,3.88-1.71,6.1-1.96,1.19-.14,2.51-.52,3.69-.23s2.47.93,3.64,1.08c1.24.16,1.93.4,2.85,1.13l2.77,2.21c4.99,3.99,3.71,3.77,4.98,9.13.22.93,0,2.01-.41,2.87-1.3,2.77-2.28,5.49-3.42,8.31-.77,1.9-2.69,3.14-3.9,4.76-.4.54-1.15,1.52-1.8,1.47-1.4-.12-2.19-1.27-3.26-2.07-.38-.28-.71-.89-.64-1.32.2-1.27,1.85-.29,3.86-1.55,1.05-.66,2.32-1.1,3.23-1.97,1.18-1.13,2.04-3.19,1.81-4.86-.21-1.49-.39-3.42-1.09-4.68-1.17-2.09-2.56-4.1-4.14-5.87-1.08-1.2-2.5-2.22-3.69-3.35-1.27-1.21-3.24-1.06-4.96-1.3Z"/>
  <path class="cls-1" d="M223.48,70.95c-3.72.68-3.04,1.3-6.15,1.2l-5.73-2.66c-1.47-.68-2.56-2.56-3.62-3.78l-2.94-3.39c.08-1.56,2.07-5.19,2.85-5.95.97-.93,2.37,2.37,2.58,2.69.79,1.2,1.46,2.35,1.17,3.95l1.05.86.81,2.73c.2.67.51,1.53.96,1.83,1.18.79,4.52.13,5.24-.58,1.01-.99.54-2.4.64-3.58.14-1.76-.09-3.07-.83-4.62-1.53-3.21-1.4-4.41-2.88-7.56-.38-.81-.61-2.22-.44-3.17.28-1.48,3.71-5.73,5.18-6.37,1.74-.77,4.01-1.18,5.68-.36.83.41,2.11,1.23,2.71,1.9,1.89,2.1,5.65,6.81,6.63,9.48l-3.79,3.64c-.21.2-.93.24-1.09.07s-.34-.56-.39-.84l-.53-2.95c-.62-3.43.71-.37-1.41-6.16-.58-1.58-1.82-2.93-3.52-3.27-1.44-.29-2.75.69-2.93,2.13l.67,1.79c-.81,7.66,4.29,8.11,3.21,17.19-.47,3.97-3.7,3.24-1.89,4.62-.14.34-.82,1.09-1.25,1.17Z"/>
  <path class="cls-1" d="M140.05,264.77c-5.44-.36-8.02,1.98-7.19-1.39.54-2.16.4-4.12,1.35-4.72.36-.23,1.35-.17,1.67.07,1.35.99,2.68,1.56,4.23,2.1l4.34,1.52c1.14.4,3.08-.17,3.97-.89,2.66-2.19-2.11-5.3-3.56-6.4-1.9-1.43-3.84-2.77-6.1-3.62-1.69-.63-2.67-1.97-3.67-3.32-1.06-1.43-1.69-2.57-1.42-4.5s1.53-5.05,2.89-5.3l3.53-.66c1.36-.25,2.36-.81,3.79-.97,2.26-.25,4.73-1.01,6.92.06.94.49.59,2.13.63,3,.11,2.1.77,6.44-.9,6.56s-.3-1.62-2.76-3.67c-.66-.55-1.4-1.33-2.3-1.49l-3.81-.68c-.82-.15-2.35-.07-2.9.51-.93.99-.23,2.55.64,3.23.95.74,3.35,2.39,4.18,2.82,1.83.94,3.35,1.95,4.99,3.12,1.82,1.3,3.68,2.43,4.7,4.56,1.27,2.64.61,7.17-1.2,8.6-2.11,1.66-4.84,1.93-7.42,1.76l-4.62-.31Z"/>
  <path class="cls-1" d="M93.52,245.33c.23-.38.61-.81.88-.9,1.28-.41,2.98,2.06,2.5,3.43-.32.91-1.2,1.84-.7,2.85,1.47,3.01,1.68,3.99,4.67,4.75.66.17,2.03.02,2.52-.38l1.98-1.62c2.09-1.71,3.1-3.74,4.21-6.13,1.6-3.45,2.55-7.31.9-10.97-.44-.98-1.61-2.45-2.68-2.72-1.3-.32-3.11.13-4.18.7-3.18,1.68-2.43,4.14-5.02,3.47-.53-.14-1.03-.62-1.15-1.12-.09-.42.53-.98.76-1.39l3.37-6.18c.6-1.1,1.63-1.92,2.98-1.25.27.13.23.87.1,1.14l-.35.7c-.09.18.47.54.68.57,1.98.3,4.12.8,6.13,1.33,2.83.75,5.33,2.46,6.42,5.28.37.95,1.05,2.04,1.27,3.02.46,2.06-1.03,7-2.1,9.03-1.39,2.63-3.43,4.99-5.24,7.33-.2.25-1.03.59-1.36.62-5.62.64-6.78,1.48-12.57-.45-1.11-.37-2.02-1.63-3.07-2.06l-3.41-1.42c-.27-.11-.74-.55-.9-.79-.19-.28-.04-1.1.14-1.4l3.24-5.43Z"/>
  <path class="cls-1" d="M251.18,163.58l-4.48-.35-2.5-.13-2.04,3.34c-.21.34-.95.63-1.38.5-.05-1.1.09-2.31.38-3.42.81-3.15,1.35-6.17,1.33-9.45,0-1.04.19-2.05.98-2.92l1.43,3.7c.37.57,1.83,1.05,2.51,1.09l6.02.33,2.25.98,1.28-.89c1.2.1,2.73.41,3.87-.07,1.68-.71,3.32-1.42,4.83-2.41s2.66-2.63,4.26-3.44c1.12-.57,1.77-.84,2.6-2.13.29.27.48.92.4,1.37l-1.76,9c-.04.22-.38.68-.59.72-1,.2-1.26-1.98-3.37-.82-2.91,1.6-5.63,2.95-8.32,5.32l5.41,8.07c.46.32,1.61.65,2.16.48,1.45-.44,1.27-2.25,2.53-2.58.19-.05.32.48.27.69-.75,3.44-1.39,6.66-2.47,10.12-1.86-1.91.12-4.25-2.52-6.73-1.24-1.16-2.26-2.43-3.37-3.72l-4.41-5.07c-1.24-1.42-3.44-1.45-5.29-1.59Z"/>
  <path class="cls-1" d="M24.29,181.76c0,.21-.22.62-.34.74s-.59-.2-.68-.44l-3.09-7.69c.63-1.54.13-2.67-.44-4.03-.5-1.17-1.22-2.56-1.95-3.5-.13-.16-.11-.62-.02-.78s.61.04.76.22l1.78,2.09c.79.93,1.7,1.99,3.1,1.99,3.71,0,5.3-2.95,9.79-2.72,1.65.08,3.27-.3,4.68-1.25,2.3-1.55,3.17,1.03,6.16-1.76,1.01-3.25,1.12-1.75,2.25-4.81.23.25.61.87.59,1.14-.07,1.29,1,2.3,1.25,3.34.56,2.28,1.18,4.22,2.13,6.41-.04-.1,1.2,3.82.65,3.78-.15-.01-.47-.07-.62-.13l-2.57-1.12-1.72-1.26c-3.13,1.26-6.28,1.6-9.49,2.32l-5.18,1.16-3.1.69c-1.14.25-2.02.38-2.49,1.55l-1.52,1.21.08,2.85Z"/>
  <path class="cls-1" d="M79.08,214.21c.65,2.08-.28,4.08-2.4,4.68-1.84.52-3.56-.93-4.13-2.82-.27-.91-.56-1.67-.43-2.66.05-.39.2-1.04.4-1.3.24-.29,1.09-.4,1.49-.5,1.52-.39,2.6-.2,3.84.7.65.47.95.99,1.23,1.89Z"/>
  <path class="cls-1" d="M218.43,40.96c-1.11-.5.72-2.5.82-3.96.06-.85.11-1.34.64-1.92-.06-.45-.19-1.05-.05-1.4.18-.43,1.01-1.14,1.44-1.04,1.28.31,2.13,1.74,2.27,2.73.24,1.71-.54,2.6-1.64,3.68-.73.72-2.23,2.47-3.49,1.91Z"/>
  <path class="cls-1" d="M128.77,162.63c2.11-2.99,2.95-6.37,4.22-9.73,1.45-3.84,2.28-7.6,3.28-11.58l1-4c.51-2.03-.01-4.09-.99-5.81s-1.97-4.64-2.87-4.89c-.29-.08-.81.28-1.22.5-.7.37-1.92.33-2.62.75-2.92,1.77-5.01,3.58-7.18,6.2-1.44,1.74-1.83,4.01-2.36,6.17.44,1.83,1.18,3.28,2.23,4.8,1.48,2.15,2.91.52,3.04,2.62s-3.97,1.36-5.27.36c-1.15-.9-2.17-1.59-3.39-2.25-1.36-.73-1.43-2.44-1.88-3.75l-1.05-3.07c-.55-1.61.74-2.86,1.3-4.27.48-1.2.37-2.83,1.23-3.87s1.86-1.98,2.85-2.97c1.12-1.11,4.89-3.19,6.49-4.05,4-2.13,8.63-2.7,12.93-.91.63.26,1.02,1.47,1.53,1.87l2.02,1.6c.85,1.51,1.65,2.92,2.33,4.48l.97,2.22c.84,1.91.42,6,1.11,6.86.88,1.08,1.05,1.7.45,2.96-.43.91-.46,2.31-.73,3.38-.66,2.61-1.75,5.34-1.98,7.34-.21,1.81-1.23,3.63-2.55,4.84-3.1,2.83-1.94,3.89-4.42,4.85-1.35.52-1.79,1.69-2.63,2.82s-2.22,2.32-3.46,2.94l-2.33,1.16c-1.17.58-2.29,1.18-3.36,1.99-1.12.85-5.75,4.25-6.78,2.51-.29-.49-.11-1.26.33-1.63l3.02-2.55c1.56-1.32,3.16-2.51,4.15-4.34.7-1.28,1.73-2.38,2.56-3.56Z"/>
  <path class="cls-1" d="M200.83,175.19c-.25.26-1.09.35-1.37.15-.26-.18-.57-.62-.75-1.04l-1.07-2.39c-.05-1.54.19-3.23.34-4.86.3-3.23.1-6.4-.68-9.55-5.1.29-3.65.14-8.08-1.55-2.67.06-4.82,1.96-8.14.45-.99-.45-1.23-1.4-1.07-2.36.18-1.06.85-1.5,1.4-2.37l2.9-4.59c.99-1.56,2.4-2.67,3.48-4.14l3.9-5.32c.58-.79,1.19-1.6,1.84-2.35.85-.98,1.2-1.99,1.79-3.11.49-.93,1.56-1.89,2.19-2.82l2.19-3.19c.86-1.25,3.35-5.08,5.19-3.96,1.35.83.52,2.08.56,4.64.05,3.25-.09,6.32-.29,9.53-.06.97.07,2.05.07,3.02l-.03,5.72c0,.59.54,1.58,1.03,1.97l3.62-.51c.28-.04.95.29,1.14.5.21.24.31.92.2,1.25l-1.11,3.31c-.56,1.66-1.43,3.21-2.34,4.77-.47.51-1.91.31-2.62.34-.54.85-.37,2.21-.2,3.26l.53,3.4.24,3.83c.79,1.35,1.27,2.97-.04,4.12-2.4,2.09-2.98,1.96-4.8,3.88ZM198.6,145.6c-.04-1.32-.1-2.43.42-3.57.55-1.22.5-2.43,0-3.68-.67-1.64.51-3.13-.87-3.45-1.48-.34-3.12,3.06-4,3.98-1.74,1.83-3.21,3.59-4.39,5.88-.59,1.15-1.59,2.43-1.43,3.79,1.28.78,2.89.43,4.3.25s2.8-.02,4.35.17c1.42.17,1.65-2.64,1.63-3.38Z"/>
  <path class="cls-1" d="M161.41,174.82c-3.92-.32-7.66.78-7.98-.44-.1-.36.33-1.06.79-1.13,2.66-.46,4.79-1.71,6.74-3.57l.34-3.39c.15-1.47,1.17-2.9,1.33-4.38l.46-4.21c.18-1.65.2-3.15.04-4.84l-.37-3.74c-.47-4.76,1.57-2.8.15-8.03-.23-.85-.08-3.44-.59-4.81-.39-1.06-4.86.19-6.11.47-.55.12-1.33-.22-1.61-.58-1.41-1.8,1.69-3.08,3.3-4.12,2.37-1.53,4.29-3.62,6.23-5.57,1.34-.76,2.13-1.9,3.04-3.18.58-.82,3.82-2.17,4.31-1.29,1.17,2.09.77,4.33.79,6.52l.04,4.97c.01,1.82-.05,3.6-.18,5.48l-.44,6.62c-.14,2.09-.31,4.2-.18,6.27.1,1.5,0,2.77-.03,4.25l-.15,8.94c-.02,1.19.4,1.76,1.02,2.77l1.53,2.48,2.34,2.11c.55.5,1.31,1.3,1.92,1.65.19.11.26.75.07.88-1.06.69-6.63.08-8.29-.12-1.47-.17-2.88-.95-4.33-.47s-2.72.6-4.2.48Z"/>
  <path class="cls-1" d="M84.81,174.69c-.24-.13.1-.86.38-.95l4.03-1.22c1.72-.52,2.84-2.02,3.12-3.71l.56-3.44c.25-1.5.27-2.92.11-4.48-.1-.97.27-1.87.46-2.77.29-1.39.44-2.83.64-4.21-1.04-1.91-.22-6.72-.05-8.64.19-2.1.14-4.35,0-6.48l-.27-4.15-3.24.15-3.89.21c-.82.04-2.13-.52-1.8-1.46.41-1.16,1.94-1.08,2.97-1.36,2.61-.71,5.13-1.67,7.4-3.14,1.8-1.17,2.99-3,4.29-4.64.89-1.14,2.61-2.52,3.76-1.65.34.26.7,1.17.59,1.63l-.84,3.57c-.43,1.84-.42,3.54-.48,5.44-.12,3.73-1.62,7.11-.25,11.17.48,1.42.21,2.22-.05,3.64-.32,1.78-.21,3.79-.44,5.7-.3,2.48.18,4.97.24,7.49.04,1.67.05,3.3,0,4.91-.03,1.2.08,1.95,1.21,2.62l5.46,3.27c.59.35,1.26.55,1.19,1.16-.07.64-.7,1.23-1.36,1.14l-3.1-.45c-1.76.62-3.17.58-4.96.51-1.22-.05-2.54.12-3.77.14l-7.44.11c-1.4.02-3.2.05-4.49-.1Z"/>
  <path class="cls-1" d="M194.76,101.61l-.52,1.92c-.06.23-.37.63-.56.75-1.15.73-.63-2.27-4.47-1.65-.27.04-.44.77-.41,1.05l.24,2.6c.03.29.73.6.99.53.31-.08.68-.51.88-.87l.32-.56c.48-.83,1.44,2.92.41,5.14-.52,1.12-1.65-.81-2.16-.95-1.38-.38-1.05,3.91-.64,5.15s2.51,1.28,3.22.45c.63-.73,1.12-1.31,1.79-1.9.42-.37,1.96.08,1.75.58l-1.18,2.89c-.84,2.06-1.38.44-5.5.79l-2.99.25c-.72.06-1.33-.27-2.04-.47-2.26-.63-4.81.29-5.18-.94-.4-1.37,1.06-.1,1.01-3.42-.02-1.15-.05-2.11-.18-3.27l-2.34-.25c-.71-.08-1.48.05-1.69.89s-.49,2.41-.09,3.22l1.55,3.16c-1.03,1.05-6.3,1.31-6.18-.86-1.8.92-3.52,1.26-5.53,1.08l-3.33-.3c-.22-.02-.65-.56-.83-.47-2.52,1.22.31.1-4.32.6-.78.08-1.23-.13-1.85-.71l-1.18.72c-2.3-.72-7.94,1.11-8.4-.6-.28-1.07,1.38-1.25,1.4-2.05l.08-2.62c.35-12.29-1.87-8.62-2.09-10.85-.02-.25.45-.75.75-.78.94-.08,5.69-.43,5.9.56.14.68-1.27,1.07-1.39,1.81-.33,2.11.26,4.25.24,6.28-.02,2.26-.87,4.47.54,6.75,1.42-1.05,1.39-2.41,2.23-3.34.14-.15.88.12.93.32l.65,2.77c2.04.14.98-4.77,1.1-5.68.17-1.34.57-2.42.28-3.83-.15-.75-.19-1.91-.24-2.76-.74-.91-.69-.14-2-1.24-.16-.14.06-.83.28-.9,2.61-.78,3.67-.33,6.58-.49.81-.04,1.45.24,2.07.93,2.06-2.05,3.78-1.17,6.34-.96.88.07,1.63.15,2.51.29,0,0,.73-.66.96-.63l4.3.51c.2.02.7.73.58.89-.64.85-1.55.4-1.61,1.15-.09,1.27-.04,3.28.33,4.63.92.7,2.4.84,3.46.43.16-1.6.12-3.41.04-5.01l-1.19-.8c-.17-.12-.43-.5-.51-.68-.1-.22.57-.69.8-.6,1.28.49,2.97.52,4.34.36.25-.03.7.55.59.76l-.57,1.11c-.47.92-.34,2.38.02,3.43.68,1.95-1.34,2.24.04,9.34.07.34.73.74,1.03.75.34,0,1.22-.37,1.24-.71.28-3.74.23-7.54.24-11.29,0-2.4-1.6-1.53-1.27-2.63.06-.21.57-.44.83-.44l4.97-.09c1.1-.02,2.19,0,3.22-.38.23-.08.75-.01.96.09s.49.77.41,1.05ZM171.39,112.27l-.05,3c.14.01.87-.23,1.08-.41l-.11-4.02c-.03-1.21-.11-2.58,0-3.69.09-.94,1.29-5.75-.38-5.9l-.39,2.38c-.05.32-.53.9-.83.96s-.99-.17-1.2-.42l-1.53-1.89c-.75-.93-1.92-.91-2.7-.45s-1.29,1.54-.88,2.65,2.03,1.75,3.05,2.4l1.96,1.25c1.31.84,2.02,2.52,1.99,4.14ZM162.27,111.93l2.19,2.35c.63.67,2.56.78,3.27.12.61-.57.62-2.2.2-2.83-2.07-3.06-5.97-1.91-6.94-5.54-.4-1.51.48-2.79,1.44-4.1-.7-.39-2.31-.29-2.59.67-.99,3.38-.49,3.41-.64,6.46-.1,2.2-.56,5.17,1.9,5.94l.05-2.54c0-.22.21-.6.37-.7.12-.08.63.06.74.18Z"/>
  <path class="cls-1" d="M137.64,116.85c-.49.04-5.28-.28-6.94-.25-.72.02-1.85-.57-1.29-1.31.47-.62.8-1.11.58-1.81l-1.03-3.3c-1.25-.52-3.05-.42-4.52,0-.62,1.08-1.23,2.73-1.35,3.92-.03.3.47.92.34,1.17s-.94.5-1.18.36c-.84-.45-1.71.48-2.29.5l-5.09.22c-.39.02-1.07-.12-1.17-.4s.05-1,.29-1.24c2.31-2.44-.32-2.63,1.58-7.22.06-1.65-.45-3.36-.77-5.17-1.22.44-1.47,1.56-2.45,1.54-.26,0-.54-.58-.62-.86l-.43-1.34c-1.83,3.55-2.27-2.56-6.38-.42l-.74.39c-.94.49,1.21,3.29,3.03,4.18,1.29.63,2.79,1.22,3.58,2.52.91,1.5,1.07,3.7.42,5.34-.43,1.09-1.79,2.17-2.89,2.4s-2.24-.06-3.26-.22l-3.32-.53-.12-2.73c-.01-.24.34-.81.55-.77.88.14,1.06,1.05,2.5,2.09.82.59,2.38.37,3.22-.13.98-.58,1.04-2.34.05-2.81-1.06-.51-1.8-1.04-2.67-1.78-.76-.65-2.11-1.01-2.81-1.78-1.61-1.78-1.72-4.55-.14-6.35,1.18-1.34,3.15-2.26,4.96-1.64,2.2.75,3.25-.8,3.51-.05l.46,1.31c.64-.56,1.53-1.11,2.43-.97,2.09.32,4.02.18,6.08,0l1.79-.15c.23-.02.7,0,.87.07.22.1.44.63.42.89-.12,1.75-.9,1.32-1.02,4.71-2.32.05-1.24-3.34-3.2-3.55-.23,1.35-.56,12.58.82,12.54s2.07-2.86,2.54-4l1.23-2.93,3.02-6.59c.41-.9,1.38-1.9,2.5-1.26.29.66.57,1.73.82,2.51l1.23,3.76c.32.98.55,1.65.97,2.55l2.5,5.43c.67-3.99-.55-3.26.17-8.04.18-1.21-.01-3.25-.31-4.31-.1-.35-1.35-.93-.69-1.24,1.64-.59,3.56-.07,5.3-.13,1.36-.05,2.38.02,3.55.64,1.05.56,1.76,1.21,1.52,2.54l-.52,2.91-.96,1.24c2.16-.06,2.98,1.59,3.17,3.43.16,1.59.27,2.82-.66,4.15-.64.91-1.24,1.51-2.53,1.62l-4.66.37ZM139.96,102.68c-.29-.5-1.31-.68-1.95-.66-.09,1.46-.07,2.86.1,4.24.43.24,1.2.32,1.56.21,1.05-.33.94-2.66.3-3.79ZM128.36,108.43c.12-1.77-.14-3.38-1.34-4.72-.28.09-.81.63-.89.96l-.86,3.24c1.03.41,1.99.64,3.1.52ZM141.68,114.27c.7-.73.82-1.76.63-2.86-.17-.99-.61-1.48-1.39-2.14-.94-.81-2.77-1.67-3.75-.26l-.24,4.13c-.02.38.12,1.15.37,1.36.57.49,3,1.19,4.37-.23Z"/>
  <path class="cls-1" d="M203.9,117.06c-1.18,1.16-2.32.69-3.62.62-2.15-.12-4.38,1.19-4.91.14-.14-.28.05-.99.29-1.21l1.17-1.11c.41-4.02.53-7.89.31-11.94l-1.73-1.21c-.25-.17-.06-1.09.21-1.12.32-.04.78-.04,1.16-.04l4.86.1c1.6.03,4.25.42,4.91,2.21s.91,3.86,1.12,5.79-.63,3.66-.9,5.45c-.21,1.42-1.13,2.78-2.88,2.32ZM202.83,113.81c.28-4.55.82-3.39.1-7.31-.19-1.02-.95-3.78-2.17-3.33-.27.1-.54.65-.54,1.01l-.03,11.39c1.13.16,2.56-.41,2.64-1.75Z"/>
  <path class="cls-1" d="M94.42,113.5c2.78,2.1,3.99-3.19,6.05-.93l-.56,2.96c-.32,1.66-3.74.22-5.69.38l-2.94.23-1.67.11c-.38-.83.34-1.38,1.02-1.84,1.03-4.92-.38-1.23.53-6.69.3-1.8.11-3.97-.06-5.83l-1.05-2.29c3.96-.21,2.76.47,6.92,0,.48-.05,1.67-.6,1.99-.19.6.41.37,3.79-.78,3.87-.97.07-.29-1.36-2.54-1.63-.42-.05-1.1.03-1.38.23s-.46.97-.41,1.33l.27,2.03c.06.46,1.17.87,1.63.81,1.43-.19,1.65-1.65,2.93-1.16.29.11.45.81.4,1.2l-.34,2.86c-.03.26-.35.7-.57.8-1.27.56-1.42-2.43-3.58-1.41-.6,1.31-.91,3.81-.17,5.16Z"/>
</svg>